<svg id="Layer_1" data-name="Layer 1" xmlns="http://www.w3.org/2000/svg" viewBox="0 0 195.93 94.21"><defs><style>.cls-1{fill:#676cab;}</style></defs><path class="cls-1" d="M5.34,93.07a.43.43,0,0,1-.49.48H2.52A.42.42,0,0,1,2,93.07V51.16a.42.42,0,0,1,.48-.48H4.85a.43.43,0,0,1,.49.48Z"/><path class="cls-1" d="M14.93,93.55q-.54,0-.54-.48V65a.62.62,0,0,1,.42-.6A27.46,27.46,0,0,1,26,62q6.18,0,9.59,3.11T39,74.48V93.07a.42.42,0,0,1-.48.48H36.33q-.54,0-.54-.48V74.6Q35.79,65,26,65a24.62,24.62,0,0,0-8.39,1.44V93.07a.43.43,0,0,1-.49.48Z"/><path class="cls-1" d="M47.12,93.55a.42.42,0,0,1-.47-.48V63.21c0-.36.15-.54.47-.54h2.22q.48,0,.48.54V93.07a.42.42,0,0,1-.48.48Z"/><path class="cls-1" d="M60.73,83.9a7.82,7.82,0,0,0,1.71,5.39,6.28,6.28,0,0,0,5,1.92l3.3-.12h.12q.36,0,.36.48v1.92a.49.49,0,0,1-.48.54,31,31,0,0,1-3.42.18,9.55,9.55,0,0,1-7.11-2.64q-2.59-2.64-2.6-7.55V55.48A.42.42,0,0,1,58,55H60a.55.55,0,0,1,.55.48l.17,7.31h9.18q.48,0,.48.54v1.86a.42.42,0,0,1-.48.48H60.73Z"/><path class="cls-1" d="M76,93.55a.42.42,0,0,1-.48-.48V63.21q0-.54.48-.54h2.22q.48,0,.48.54V93.07a.42.42,0,0,1-.48.48Z"/><path class="cls-1" d="M91,62.85A21.42,21.42,0,0,1,97.06,62c3.72,0,6.56,1,8.52,2.93s2.94,4.76,2.94,8.39V91.57a.62.62,0,0,1-.42.6,36.25,36.25,0,0,1-5.19,1.44,29.46,29.46,0,0,1-6,.6,15.29,15.29,0,0,1-9-2.52,8.28,8.28,0,0,1-3.57-7.19,8.18,8.18,0,0,1,3.36-7Q91.07,75,97,75a49.83,49.83,0,0,1,8.39,1V73.4q0-4.12-2-6.29T97,65a18.25,18.25,0,0,0-5,.69,16.36,16.36,0,0,0-4.17,1.77q-.36.3-.66-.12l-1-1.56q-.3-.42,0-.6A16.51,16.51,0,0,1,91,62.85ZM90.17,89.5A11.47,11.47,0,0,0,97,91.33a25.75,25.75,0,0,0,8.39-1.44V78.74a39.41,39.41,0,0,0-8.39-.9q-4.62,0-7,1.71a5.73,5.73,0,0,0-2.37,5A5.8,5.8,0,0,0,90.17,89.5Z"/><path class="cls-1" d="M119,83.9a7.82,7.82,0,0,0,1.71,5.39,6.27,6.27,0,0,0,4.94,1.92l3.3-.12h.12q.36,0,.36.48v1.92A.49.49,0,0,1,129,94a31,31,0,0,1-3.41.18,9.55,9.55,0,0,1-7.11-2.64q-2.61-2.64-2.61-7.55V55.48a.42.42,0,0,1,.48-.48h1.92a.54.54,0,0,1,.54.48l.18,7.31h9.17q.48,0,.48.54v1.86a.42.42,0,0,1-.48.48H119Z"/><path class="cls-1" d="M134.24,93.55a.42.42,0,0,1-.48-.48V63.21q0-.54.48-.54h2.22c.31,0,.48.18.48.54V93.07a.43.43,0,0,1-.48.48Z"/><path class="cls-1" d="M153.54,93.55a.52.52,0,0,1-.54-.42L141.55,63.27l-.06-.18q0-.42.48-.42h2.34a.52.52,0,0,1,.54.42l7,18.71,1.07,2.82q1.32,3.7,2,5.45H155c.72-2,1.74-4.8,3.06-8.27l7-18.71a.58.58,0,0,1,.24-.3.59.59,0,0,1,.35-.12h2.34a.4.4,0,0,1,.36.18.5.5,0,0,1,.06.42L156.9,93.13a.62.62,0,0,1-.6.42Z"/><path class="cls-1" d="M195.93,79.28q0,.48-.54.48H174.71v3.36a7.47,7.47,0,0,0,2.57,6,9.58,9.58,0,0,0,6.48,2.22,13.2,13.2,0,0,0,5.42-1,16.54,16.54,0,0,0,4.35-2.79q.48-.3.72.12L195.33,89q.36.36-.06.72a17.15,17.15,0,0,1-11.57,4.5,14,14,0,0,1-6-1.32,10.73,10.73,0,0,1-4.5-3.84,10.42,10.42,0,0,1-1.68-5.93V73.64q0-5.56,3.48-8.6a12.9,12.9,0,0,1,8.81-3,12.67,12.67,0,0,1,8.75,3q3.42,3,3.42,8.6Zm-3.12-5.64a8.26,8.26,0,0,0-2.49-6.41,10.72,10.72,0,0,0-13.18,0,8.35,8.35,0,0,0-2.43,6.44v3.42h18.1Z"/><path class="cls-1" d="M25.36,42.62a21.43,21.43,0,0,1-8.63,1.68,20.2,20.2,0,0,1-8.37-1.7,14,14,0,0,1-6.08-5.16A15,15,0,0,1,0,29V15.29A15.53,15.53,0,0,1,2.19,6.8a13.28,13.28,0,0,1,5.9-5.12A19.74,19.74,0,0,1,16.31,0a28.44,28.44,0,0,1,7.58,1.05A24.74,24.74,0,0,1,30.7,4a1,1,0,0,1,.48.78,1,1,0,0,1-.18.47L28,9.41a.73.73,0,0,1-.66.42,1.08,1.08,0,0,1-.54-.18A20.25,20.25,0,0,0,16.25,6.83,9.47,9.47,0,0,0,9.71,9q-2.46,2.19-2.46,6.45V28.89q0,4.26,2.67,6.42a10.48,10.48,0,0,0,6.81,2.16,15.73,15.73,0,0,0,4.76-.69A11.23,11.23,0,0,0,25.12,35V25.84h-8q-.84,0-.84-.9V20.26c0-.6.28-.89.84-.89H31.36c.56,0,.84.29.84.89V37.11a1.2,1.2,0,0,1-.3,1A18.69,18.69,0,0,1,25.36,42.62Z"/><path class="cls-1" d="M48.26,44.3a9.18,9.18,0,0,1-7.4-3q-2.61-3.06-2.61-8.57V1.62a.8.8,0,0,1,.9-.9h5.16a.79.79,0,0,1,.89.9V32.43a7.21,7.21,0,0,0,1,4.23,3.49,3.49,0,0,0,3,1.29q.72,0,2.28-.12a.8.8,0,0,1,.9.9v4.44c0,.6-.22.91-.66,1A32.59,32.59,0,0,1,48.26,44.3Z"/><path class="cls-1" d="M56.6,43.59a.8.8,0,0,1-.9-.9V13.37q0-.84.9-.84h5.21a.74.74,0,0,1,.84.84V42.69q0,.9-.84.9Z"/><path class="cls-1" d="M80.82,11.81q5.82,0,9.14,3T93.29,24V41.49a1,1,0,0,1-.66,1A41.51,41.51,0,0,1,86.9,43.8a40.05,40.05,0,0,1-6.32.5A17.58,17.58,0,0,1,71,41.91q-3.78-2.4-3.78-7.62a8.1,8.1,0,0,1,3.57-7.16q3.56-2.43,9.56-2.43a46.88,46.88,0,0,1,6,.48V24q0-3.24-1.35-4.65T80.34,18a17.38,17.38,0,0,0-4.17.51,12.8,12.8,0,0,0-3.5,1.41,1.11,1.11,0,0,1-.55.18.72.72,0,0,1-.65-.42L69.07,16c-.28-.45-.28-.78,0-1Q73.68,11.81,80.82,11.81ZM76,37.26a9.32,9.32,0,0,0,4.62,1,24.67,24.67,0,0,0,5.76-.72V30.75a41.44,41.44,0,0,0-5.82-.47c-4.2,0-6.29,1.31-6.29,3.95A3.25,3.25,0,0,0,76,37.26Z"/><path class="cls-1" d="M109.42,44.3a9.2,9.2,0,0,1-7.41-3q-2.61-3.06-2.61-8.57V1.62a.8.8,0,0,1,.9-.9h5.16a.8.8,0,0,1,.9.9V32.43a7.21,7.21,0,0,0,1,4.23,3.49,3.49,0,0,0,3,1.29c.49,0,1.24,0,2.28-.12a.8.8,0,0,1,.9.9v4.44c0,.6-.22.91-.66,1A32.53,32.53,0,0,1,109.42,44.3Z"/></svg>