<svg id="Layer_1" data-name="Layer 1" xmlns="http://www.w3.org/2000/svg" viewBox="0 0 123.62 176.35"><defs><style>.cls-1{fill:#47b8a6;}</style></defs><path class="cls-1" d="M54.74,32.63c0,7.81,0,15.63,0,23.44,0,3.17-1,5.73-4,7.15a7.15,7.15,0,0,1-8.22-1.74,3.37,3.37,0,0,0-2.79-1.11,7.4,7.4,0,0,1-7.93-6,2.37,2.37,0,0,0-1.28-1.64,7.65,7.65,0,0,1-3.86-7.77A6.42,6.42,0,0,0,26,41.1a7.61,7.61,0,0,1-.11-7.4,2.26,2.26,0,0,0-.07-2.28,8.42,8.42,0,0,1,1.32-9.32,3,3,0,0,0,.68-2.68,6.57,6.57,0,0,1,3-6.89,2.47,2.47,0,0,0,1.12-2,7.63,7.63,0,0,1,6.58-6.84,3,3,0,0,0,1.93-.92C42.9-.1,46.19-.29,49.57.29c2.73.47,5.12,4.35,5.14,8.14,0,8.07,0,16.13,0,24.2ZM42.55,4C44,5.06,45.41,6,46.22,7.44a1.35,1.35,0,0,1-.32,2c-.72.47-1.23,0-1.65-.61a11.83,11.83,0,0,0-.9-1.18,5,5,0,0,0-5.51-1.28A4.63,4.63,0,0,0,34.35,11c.06,1.82-.39,2.89-2.18,3.54a3.41,3.41,0,0,0-2,2.74c-.28,1.54-.36,2.46,1.91,2a8.57,8.57,0,0,1,10.3,7.3c.08.85.21,1.81-.89,2s-1.21-.74-1.38-1.6A6.22,6.22,0,0,0,35,21.56a6,6,0,0,0-6.35,2.5,6,6,0,0,0,0,7.42,1.79,1.79,0,0,1,0,2.44c-1.82,2.41-1.55,4.77.28,7.06a2.08,2.08,0,0,1,.53,2.42,5.56,5.56,0,0,0,2.92,7.47A2.52,2.52,0,0,1,34,53c.58,3.47,3.22,5.43,6.29,4.9s4.83-3.26,4.13-6.94c-.17-.89-.34-1.74.8-2,.94-.19,1.32.56,1.52,1.31a7.66,7.66,0,0,1-1.41,7.27c-1.62,2-1.4,2.75,1.06,3.56a4.26,4.26,0,0,0,5.92-4c.1-2,0-4,0-6,0-6.11,0-6.11-6.24-6.09-4.44,0-4.91.34-6.39,4.58-.24.7-.56,1.24-1.38,1.12a1.2,1.2,0,0,1-1-1.46,7.38,7.38,0,0,1,.28-1.46c1.07-3.7,3.63-5.2,8.8-5.19,6.07,0,6,0,6-5.88,0-1.87-.69-2.19-2.33-2.15-3.57.1-7.15.1-10.72,0a6.74,6.74,0,0,1-6.51-5.79c-.11-.87-.39-2,.92-2.2s1.22.8,1.43,1.62c.74,2.92,2.05,4,5.11,4.07,3.32.07,6.65-.07,10,0,1.59,0,2.17-.38,2.12-2.07-.13-3.73,0-7.48,0-11.22,0-3.26,0-3.26-3.26-3.36-.89,0-2,.22-2-1.18,0-1.22,1.05-1,1.86-1.07,3.38-.23,3.38-.23,3.37-3.54,0-.58,0-1.17,0-1.75A5.38,5.38,0,0,0,49,3,5.74,5.74,0,0,0,42.55,4Z"/><path class="cls-1" d="M57.69,32.28c0-7.72.06-15.44,0-23.16,0-3.89,1.39-6.84,5-8.38A7.8,7.8,0,0,1,72,2.79a3.57,3.57,0,0,0,2.15,1c3.53.75,5.72,2.86,6.25,6.5a3.24,3.24,0,0,0,1.44,2.4,6.44,6.44,0,0,1,2.69,7,2.39,2.39,0,0,0,.71,2.39,8.56,8.56,0,0,1,1.37,9.31,2.73,2.73,0,0,0,0,2.53,6.7,6.7,0,0,1,.21,6,9.47,9.47,0,0,0-1.08,5.86c.27,1.68-.13,3.78-1.47,4.56-3.92,2.3-3.7,8.33-8.39,9.45a36.9,36.9,0,0,0-8.66,3.35c-4.55,2.37-9.45-1-9.5-6.19C57.62,48.73,57.69,40.5,57.69,32.28ZM69.8,3.92a5.86,5.86,0,0,0-6.68-.77,5.38,5.38,0,0,0-3,5.3c0,1.49-.58,3.19.23,4.39s2.46.39,3.75.54c.74.08,1.27.39,1.23,1.23s-.67,1.05-1.39,1.05a16.48,16.48,0,0,1-2,0C60.56,15.5,60,16,60,17.44q.1,6.6,0,13.21c0,1.36.57,1.69,1.79,1.67,3.57-.07,7.15,0,10.72-.09,2.69-.07,4-1.28,4.64-3.94.21-.92.31-2,1.61-1.67s.95,1.41.81,2.28A6.85,6.85,0,0,1,73,34.59c-2.32.09-4.65,0-7,0-6.33,0-6.29,0-6,6.43.07,1.21.45,1.6,1.6,1.57,2.07,0,4.15-.08,6.23,0,3.75.14,6.52,2.43,7.11,5.78.16.91.42,2-.78,2.29s-1.33-.77-1.54-1.68a4.6,4.6,0,0,0-4.94-4c-2,0-4,0-6,0-1.1,0-1.7.2-1.67,1.47.06,3.58,0,7.15.06,10.72a4,4,0,0,0,2.61,3.89,4.78,4.78,0,0,0,4.72-.64c1-.63,1.38-1.22.25-2.25a7.13,7.13,0,0,1-2.23-7c.19-.95.2-2.5,1.78-2.15s.71,1.53.56,2.46a5.35,5.35,0,1,0,10.54,1.67,2.68,2.68,0,0,1,1.8-2.34,5.43,5.43,0,0,0,2.94-7.07,2.61,2.61,0,0,1,.44-2.9c2-2.44,2.06-4.19.34-6.79a2,2,0,0,1,0-2.65A6,6,0,0,0,85,27a6.41,6.41,0,0,0-5.9-5.49c-3.4-.18-5.95,1.78-6.79,5.31-.22.92-.23,2-1.54,1.71s-.93-1.34-.76-2.26A8.77,8.77,0,0,1,80.1,19.14c2.08.33,2.72-.4,2-2.37a3.87,3.87,0,0,0-2.26-2.53c-1.49-.48-1.76-1.34-1.69-2.79C78.24,8.52,76.35,6.8,73.87,6c-2-.67-3.7.57-5.2,1.9-.54.49-.62,1.38-1.43,1.62C65.75,7.16,65.82,7,69.8,3.92Z"/><path class="cls-1" d="M51,24.15a4.78,4.78,0,0,1-3.92,4.76c-.85.11-1.54-.08-1.76-.95s.33-1.28,1.05-1.38a2.28,2.28,0,0,0,2.26-2.22c0-1.45-.93-2.19-2.36-2.39a1.08,1.08,0,0,1-1-1.46c.2-.77.81-1,1.55-.92A4.68,4.68,0,0,1,51,24.15Z"/><path class="cls-1" d="M45.5,40c-1.07,0-2.15,0-3.22,0a1.27,1.27,0,0,1-1.4-1.13c-.06-.91.65-1.26,1.48-1.26,2.23,0,4.46,0,6.69,0,.83,0,1.57.28,1.52,1.21S49.81,40,49,40Z"/><path class="cls-1" d="M34.17,43.58c-.73,0-1.21-.17-1.32-.72A4,4,0,0,1,34.16,39c1-1,2.31-1.79,3.8-1.25.95.35,1.21,1.56.21,1.86-1.87.57-3,1.5-3.39,3.44C34.74,43.32,34.31,43.48,34.17,43.58Z"/><path class="cls-1" d="M42.91,15.62a4.8,4.8,0,0,1-4.19-4.18c0-.81,0-1.55,1-1.74s1.19.37,1.31,1.11a2.9,2.9,0,0,0,2.57,2.6c.74.14,1.28.51,1.11,1.32S43.69,15.71,42.91,15.62Z"/><path class="cls-1" d="M61.3,24.21a5,5,0,0,1,3.89-4.55c.8-.13,1.56-.09,1.88.75S66.84,21.8,66,22c-1.26.26-2.19.85-2.24,2.23-.05,1.53,1,2.12,2.32,2.39.72.14,1.24.6,1,1.4s-1,1-1.79.9A4.88,4.88,0,0,1,61.3,24.21Z"/><path class="cls-1" d="M66.67,40c-1.16,0-2.32,0-3.48,0-.73,0-1.33-.36-1.38-1.14s.51-1.21,1.26-1.21c2.4,0,4.81,0,7.21,0a1,1,0,0,1,1.11,1.08A1.14,1.14,0,0,1,70.15,40c-1.16,0-2.32,0-3.48,0Z"/><path class="cls-1" d="M73.71,11.45a5,5,0,0,1-4.38,4.22c-.71,0-1.39-.08-1.59-.85s.28-1.21,1-1.39c1.36-.34,2.43-.95,2.59-2.56a1.15,1.15,0,0,1,1.54-1.14A1.39,1.39,0,0,1,73.71,11.45Z"/><path class="cls-1" d="M75,37.63a5.09,5.09,0,0,1,4.71,4.28c0,.79,0,1.53-1,1.66a1.13,1.13,0,0,1-1.36-1.1A2.61,2.61,0,0,0,74.73,40a1.09,1.09,0,0,1-1-1.39A1.2,1.2,0,0,1,75,37.63Z"/><path class="cls-1" d="M2.1,175.62c0,.21-.1.31-.3.31H.31a.27.27,0,0,1-.31-.31V148.9c0-.2.1-.3.31-.3H1.8a.27.27,0,0,1,.3.3Z"/><path class="cls-1" d="M8.22,175.93c-.23,0-.35-.1-.35-.31V157.7a.4.4,0,0,1,.27-.39,17.61,17.61,0,0,1,7.11-1.49,8.72,8.72,0,0,1,6.12,2q2.18,2,2.18,6v11.85a.27.27,0,0,1-.31.31H21.86c-.22,0-.34-.1-.34-.31V163.85q0-6.15-6.27-6.15a15.79,15.79,0,0,0-5.35.91v17a.27.27,0,0,1-.31.31Z"/><path class="cls-1" d="M28.75,175.93a.27.27,0,0,1-.31-.31v-19c0-.23.1-.35.31-.35h1.41c.2,0,.31.12.31.35v19a.28.28,0,0,1-.31.31Z"/><path class="cls-1" d="M37.42,169.78a5.05,5.05,0,0,0,1.09,3.44,4,4,0,0,0,3.16,1.22l2.1-.08h.07c.16,0,.23.11.23.31v1.22a.32.32,0,0,1-.3.35,21.63,21.63,0,0,1-2.18.11,6.09,6.09,0,0,1-4.53-1.68,6.56,6.56,0,0,1-1.66-4.82V151.66c0-.21.1-.31.3-.31h1.23c.17,0,.29.1.34.31l.12,4.66h5.84c.21,0,.31.11.31.34v1.19c0,.2-.1.3-.31.3H37.42Z"/><path class="cls-1" d="M47.13,175.93c-.2,0-.3-.1-.3-.31v-19c0-.23.1-.35.3-.35h1.42c.2,0,.3.12.3.35v19c0,.21-.1.31-.3.31Z"/><path class="cls-1" d="M56.71,156.36a13.53,13.53,0,0,1,3.88-.54A7.35,7.35,0,0,1,66,157.7a7.27,7.27,0,0,1,1.87,5.35v11.62a.39.39,0,0,1-.27.38,23.3,23.3,0,0,1-3.31.92,19.06,19.06,0,0,1-3.8.38,9.65,9.65,0,0,1-5.75-1.61,5.75,5.75,0,0,1-.14-9.06,9.83,9.83,0,0,1,5.89-1.56,30.75,30.75,0,0,1,5.35.61v-1.65a5.67,5.67,0,0,0-1.28-4,5.31,5.31,0,0,0-4.07-1.37,11.69,11.69,0,0,0-3.19.43,10.7,10.7,0,0,0-2.66,1.13c-.15.13-.29.1-.42-.07l-.65-1c-.13-.18-.13-.3,0-.38A10.46,10.46,0,0,1,56.71,156.36Zm-.52,17a7.31,7.31,0,0,0,4.32,1.17,16.45,16.45,0,0,0,5.35-.92v-7.11a25.26,25.26,0,0,0-5.35-.58A7.6,7.6,0,0,0,56.06,167a3.65,3.65,0,0,0-1.51,3.16A3.69,3.69,0,0,0,56.19,173.35Z"/><path class="cls-1" d="M74.58,169.78a5,5,0,0,0,1.09,3.44,4,4,0,0,0,3.15,1.22l2.1-.08H81c.15,0,.23.11.23.31v1.22a.32.32,0,0,1-.31.35,21.28,21.28,0,0,1-2.17.11,6.06,6.06,0,0,1-4.53-1.68,6.57,6.57,0,0,1-1.67-4.82V151.66a.27.27,0,0,1,.31-.31h1.22c.18,0,.29.1.35.31l.11,4.66h5.85c.2,0,.31.11.31.34v1.19a.27.27,0,0,1-.31.3H74.58Z"/><path class="cls-1" d="M84.29,175.93a.27.27,0,0,1-.31-.31v-19c0-.23.1-.35.31-.35H85.7c.21,0,.31.12.31.35v19a.27.27,0,0,1-.31.31Z"/><path class="cls-1" d="M96.6,175.93a.34.34,0,0,1-.35-.27l-7.3-19,0-.12c0-.18.1-.27.31-.27h1.49a.32.32,0,0,1,.34.27l4.44,11.93.69,1.79c.56,1.59,1,2.74,1.3,3.48h0c.46-1.3,1.11-3.05,1.95-5.27l4.44-11.93a.31.31,0,0,1,.15-.19.43.43,0,0,1,.23-.08h1.49a.26.26,0,0,1,.23.12.34.34,0,0,1,0,.27l-7.3,19a.4.4,0,0,1-.39.27Z"/><path class="cls-1" d="M123.62,166.83c0,.21-.11.31-.34.31H110.09v2.14a4.8,4.8,0,0,0,1.64,3.82,6.15,6.15,0,0,0,4.13,1.42,8.58,8.58,0,0,0,3.46-.67,10.82,10.82,0,0,0,2.77-1.78c.21-.13.36-.1.46.07l.69.88a.28.28,0,0,1,0,.46,11,11,0,0,1-7.38,2.87,9,9,0,0,1-3.86-.84,6.89,6.89,0,0,1-2.86-2.45,6.6,6.6,0,0,1-1.07-3.78v-6a6.92,6.92,0,0,1,2.21-5.49,8.28,8.28,0,0,1,5.62-1.93,8.13,8.13,0,0,1,5.58,1.93,6.93,6.93,0,0,1,2.18,5.49Zm-2-3.59a5.25,5.25,0,0,0-1.58-4.09,6.86,6.86,0,0,0-8.41,0,5.33,5.33,0,0,0-1.55,4.11v2.18h11.54Z"/><path class="cls-1" d="M27.62,141.51a23.49,23.49,0,0,1-9.4,1.83,22,22,0,0,1-9.11-1.86,15.25,15.25,0,0,1-6.63-5.62A16.42,16.42,0,0,1,0,126.62V111.73a16.93,16.93,0,0,1,2.38-9.24,14.6,14.6,0,0,1,6.44-5.58,21.43,21.43,0,0,1,8.94-1.83A31,31,0,0,1,26,96.23a27,27,0,0,1,7.41,3.23,1.07,1.07,0,0,1,.52.85,1.1,1.1,0,0,1-.19.52l-3.27,4.51a.79.79,0,0,1-.71.45,1.13,1.13,0,0,1-.59-.19,22,22,0,0,0-11.5-3.07,10.27,10.27,0,0,0-7.11,2.38q-2.69,2.39-2.68,7v14.63q0,4.63,2.91,7a11.36,11.36,0,0,0,7.41,2.35,17.22,17.22,0,0,0,5.19-.75,12.19,12.19,0,0,0,3.95-2v-9.92H18.61c-.61,0-.92-.33-.92-1v-5.1c0-.65.31-1,.92-1H34.15c.61,0,.91.33.91,1V135.5a1.34,1.34,0,0,1-.32,1.05A20.56,20.56,0,0,1,27.62,141.51Z"/><path class="cls-1" d="M52.56,143.34q-5.22,0-8.06-3.33t-2.84-9.34V96.85a.86.86,0,0,1,1-1h5.61a.86.86,0,0,1,1,1v33.56a7.8,7.8,0,0,0,1.05,4.6,3.78,3.78,0,0,0,3.26,1.41c.53,0,1.35,0,2.48-.13a.86.86,0,0,1,1,1v4.83c0,.65-.24,1-.71,1A32.94,32.94,0,0,1,52.56,143.34Z"/><path class="cls-1" d="M61.64,142.55a.86.86,0,0,1-1-1V109.64c0-.6.33-.91,1-.91h5.68a.81.81,0,0,1,.91.91v31.94c0,.65-.3,1-.91,1Z"/><path class="cls-1" d="M88,108q6.33,0,10,3.29t3.62,10v19.07a1.14,1.14,0,0,1-.72,1.11,46.35,46.35,0,0,1-6.23,1.4,43.93,43.93,0,0,1-6.89.56,19.16,19.16,0,0,1-10.45-2.61q-4.11-2.61-4.11-8.3a8.83,8.83,0,0,1,3.88-7.8Q81,122,87.5,122a50.76,50.76,0,0,1,6.53.52v-1.24q0-3.52-1.47-5.06t-5.06-1.54a18.39,18.39,0,0,0-4.54.56,14.25,14.25,0,0,0-3.82,1.53,1.21,1.21,0,0,1-.59.2.78.78,0,0,1-.72-.46l-2.61-4q-.47-.72,0-1.11Q80.24,107.95,88,108Zm-5.29,27.72a10.24,10.24,0,0,0,5,1.07A27,27,0,0,0,94,136v-7.38a43.58,43.58,0,0,0-6.34-.52c-4.57,0-6.86,1.43-6.86,4.31A3.56,3.56,0,0,0,82.73,135.67Z"/><path class="cls-1" d="M119.16,143.34q-5.22,0-8.06-3.33t-2.84-9.34V96.85a.86.86,0,0,1,1-1h5.61a.86.86,0,0,1,1,1v33.56a7.8,7.8,0,0,0,1,4.6,3.78,3.78,0,0,0,3.26,1.41c.53,0,1.35,0,2.48-.13a.86.86,0,0,1,1,1v4.83c0,.65-.24,1-.71,1A32.94,32.94,0,0,1,119.16,143.34Z"/><path class="cls-1" d="M54.94,81.93c-2.74.83-9.22-2.1-10.64-2.58a83.81,83.81,0,0,1-15.2-6.8c-.31-.17-.61-.35-.91-.53-4.78-2.86-7.69-6.72-8.46-11.76a53.07,53.07,0,0,1-.32-14.35c.08-.64,0-1.66.89-1.72s1,1,1.23,1.55c1,3.12,1.74,6.29,2.81,9.38s2.22,6,4.59,8.47a14.82,14.82,0,0,0,7.56,4.08c-1.46-1.07-2.93-2.12-4.36-3.22a7.34,7.34,0,0,1-2.38-2.83A1.37,1.37,0,0,1,30,60.09,1,1,0,0,1,31.4,60c4.26,2.86,9.5,4.23,14,6.76a9.41,9.41,0,0,1,3.45,3.41c1.25,2.12,3.15,3.48,4.81,5.14,1.33,1.33,2.82,3,2.52,5.24A1.57,1.57,0,0,1,54.94,81.93Z"/><path class="cls-1" d="M58.78,81.93c2.74.83,9.22-2.1,10.64-2.58a83.2,83.2,0,0,0,15.2-6.8c.31-.17.61-.35.91-.53,4.78-2.86,7.69-6.72,8.46-11.76a53.07,53.07,0,0,0,.32-14.35c-.08-.64,0-1.66-.89-1.72s-1,1-1.22,1.55c-1,3.12-1.75,6.29-2.82,9.38s-2.22,6-4.59,8.47a14.83,14.83,0,0,1-7.55,4.08c1.45-1.07,2.92-2.12,4.35-3.22A7.34,7.34,0,0,0,84,61.62a1.35,1.35,0,0,0-.27-1.53A1,1,0,0,0,82.32,60c-4.26,2.86-9.49,4.23-14,6.76a9.41,9.41,0,0,0-3.45,3.41c-1.25,2.12-3.15,3.48-4.81,5.14-1.33,1.33-2.82,3-2.52,5.24A1.57,1.57,0,0,0,58.78,81.93Z"/></svg>