<svg id="Layer_1" data-name="Layer 1" xmlns="http://www.w3.org/2000/svg" viewBox="0 0 143.9 156.82"><defs><style>.cls-1{fill:#676cab;}.cls-2{fill:#47b8a6;}</style></defs><path class="cls-1" d="M68.29,156.54c-5.22,1.59-17.55-4-20.25-4.91A159.42,159.42,0,0,1,19.1,138.69l-1.74-1c-9.1-5.43-14.64-12.8-16.1-22.38A100.84,100.84,0,0,1,.66,88C.8,86.76.6,84.81,2.34,84.69s2,1.81,2.34,3C6.54,93.59,8,99.62,10,105.51c2,5.71,4.22,11.38,8.74,16.12a28.19,28.19,0,0,0,14.38,7.76c-2.77-2-5.57-4-8.28-6.12a14.1,14.1,0,0,1-4.54-5.39,2.55,2.55,0,0,1,.51-2.91,2,2,0,0,1,2.63-.14c8.11,5.44,18.08,8,26.58,12.88a17.62,17.62,0,0,1,6.57,6.48c2.37,4,6,6.63,9.15,9.79,2.54,2.53,5.36,5.79,4.8,10A3,3,0,0,1,68.29,156.54Z"/><path class="cls-1" d="M75.61,156.54c5.21,1.59,17.54-4,20.24-4.91a159.51,159.51,0,0,0,29-12.94l1.73-1c9.1-5.43,14.64-12.8,16.11-22.38a101.24,101.24,0,0,0,.6-27.32c-.15-1.21.06-3.16-1.69-3.28s-2,1.81-2.33,3c-1.86,5.94-3.32,12-5.36,17.86-2,5.71-4.23,11.38-8.75,16.12a28.12,28.12,0,0,1-14.37,7.76c2.76-2,5.56-4,8.28-6.12a14.19,14.19,0,0,0,4.54-5.39,2.59,2.59,0,0,0-.51-2.91,2,2,0,0,0-2.63-.14c-8.11,5.44-18.08,8-26.59,12.88a17.67,17.67,0,0,0-6.56,6.48c-2.38,4-6,6.63-9.16,9.79-2.53,2.53-5.35,5.79-4.8,10A3,3,0,0,0,75.61,156.54Z"/><path class="cls-2" d="M47.32,3.24c4.41-3.66,8.79-4,13.36-2.06s6.73,5.72,6.94,10.63c0,1.21,0,2.43,0,3.64,0,6.89,0,6.89-7,7.36-1.67.11-3.83-.32-3.86,2.24,0,2.91,2.29,2.4,4.15,2.46,6.83.2,6.8.2,6.78,7,0,7.78-.21,15.57,0,23.35.12,3.51-1.1,4.39-4.4,4.3-6.91-.2-13.84.07-20.76-.07-6.36-.12-9.08-2.38-10.63-8.47-.43-1.71-.56-3.76-3-3.37-2.73.45-2.15,2.76-1.92,4.58A14,14,0,0,0,40.6,66.87c7.43.23,14.88.23,22.31,0,3.42-.1,4.86.57,4.84,4.47,0,12.26.14,12.26-12.49,12.23-10.77,0-16.1,3.11-18.33,10.81a15.69,15.69,0,0,0-.58,3c-.13,1.55.5,2.77,2.15,3s2.36-.87,2.87-2.33c3.09-8.81,4.06-9.49,13.3-9.52,13-.05,13-.05,13,12.67,0,4.15.12,8.31-.08,12.45-.33,6.81-5.89,10.52-12.34,8.4-5.1-1.68-5.56-3.24-2.18-7.4,3.66-4.52,4.43-9.62,2.93-15.13-.43-1.56-1.21-3.12-3.18-2.73-2.36.48-2,2.25-1.66,4.09,1.45,7.67-1.94,13.29-8.6,14.44-6.39,1.11-11.88-3-13.09-10.19A5.18,5.18,0,0,0,26,100.77c-6.19-3-8.69-9.14-6.08-15.56,1-2.36.08-3.55-1.1-5-3.8-4.76-4.36-9.69-.57-14.69,1.37-1.81,1.3-3.21,0-5.07-3.52-5.1-3.53-10.4.06-15.45a12.48,12.48,0,0,1,13.23-5.2C37.67,40.92,41.13,45,42.33,51c.36,1.8.48,3.74,2.88,3.33s2-2.39,1.85-4.17C46.13,40.2,36,32.7,25.61,34.93c-4.71,1-4.55-.89-4-4.11.47-2.54,1.79-4.86,4.07-5.69,3.73-1.36,4.67-3.57,4.54-7.37-.17-4.85,2.84-8.12,7.27-9.64A10.42,10.42,0,0,1,49,10.78a22.55,22.55,0,0,1,1.87,2.47c.88,1.18,1.94,2.24,3.45,1.27s1.47-2.64.66-4.13C53.28,7.31,50.33,5.44,47.32,3.24ZM64.87,45.17c0-4.82-4.07-9.25-8.6-9.49-1.54-.09-2.82.31-3.22,1.92a2.24,2.24,0,0,0,2,3c3,.42,5,2,4.93,5-.06,2.7-1.92,4.24-4.71,4.64-1.5.21-2.63,1.19-2.19,2.87s1.9,2.2,3.66,2C61.22,54.48,64.91,50.06,64.87,45.17Zm-11.41,33c2.41,0,4.82,0,7.22,0,1.74,0,3.24-.69,3.34-2.49s-1.45-2.52-3.18-2.52c-4.64,0-9.28,0-13.91,0-1.73,0-3.21.73-3.09,2.63.09,1.51,1.37,2.31,2.92,2.34C49,78.2,51.23,78.17,53.46,78.17ZM29.88,85.61c.29-.22,1.19-.55,1.27-1,.73-4,3.16-6,7.06-7.15,2.07-.63,1.54-3.16-.44-3.88-3.09-1.13-5.75.57-7.91,2.6a8.37,8.37,0,0,0-2.72,7.94C27.36,85.24,28.37,85.67,29.88,85.61ZM48.06,27.42c1.64.19,3.26.09,3.66-1.86.35-1.68-.78-2.46-2.32-2.74a6,6,0,0,1-5.34-5.41c-.25-1.53-1-2.67-2.72-2.32-1.91.4-2.09,1.95-2,3.62C39.62,23,43.79,27.17,48.06,27.42Z"/><path class="cls-2" d="M86.35,10.39c-.82,1.49-1,3.1.65,4.13s2.57-.09,3.45-1.27a24,24,0,0,1,1.88-2.47,10.41,10.41,0,0,1,11.45-2.66c4.42,1.52,7.44,4.79,7.27,9.64-.14,3.8.81,6,4.54,7.37,2.27.83,3.59,3.15,4.06,5.69.6,3.22.75,5.12-4,4.11-10.4-2.23-20.51,5.27-21.45,15.18-.16,1.78-.43,3.77,1.86,4.17S98.62,52.75,99,51c1.19-6,4.65-10,10.77-11.17,5.37-1,10,.69,13.22,5.2,3.6,5.05,3.59,10.35.07,15.45-1.29,1.86-1.36,3.26,0,5.07,3.78,5,3.23,9.93-.58,14.69-1.17,1.47-2.06,2.66-1.1,5,2.61,6.42.11,12.6-6.08,15.56a5.21,5.21,0,0,0-3.45,4.45c-1.21,7.23-6.7,11.3-13.09,10.19-6.66-1.15-10-6.77-8.59-14.44.35-1.84.7-3.61-1.67-4.09-2-.39-2.74,1.17-3.17,2.73-1.51,5.51-.74,10.61,2.93,15.13,3.38,4.16,2.92,5.72-2.19,7.4-6.44,2.12-12-1.59-12.33-8.4-.2-4.14-.1-8.3-.09-12.45,0-12.72,0-12.72,13-12.67,9.23,0,10.21.71,13.29,9.52.51,1.46,1.18,2.59,2.88,2.33s2.27-1.47,2.15-3a15.71,15.71,0,0,0-.59-3C102.15,86.71,96.81,83.57,86,83.6c-12.62,0-12.45,0-12.49-12.23,0-3.9,1.43-4.57,4.84-4.47q11.16.3,22.32,0a14,14,0,0,0,13.54-12.05c.22-1.82.8-4.13-1.92-4.58-2.41-.39-2.53,1.66-3,3.37-1.54,6.09-4.27,8.35-10.63,8.47-6.91.14-13.84-.13-20.76.07-3.29.09-4.51-.79-4.39-4.3.26-7.78.08-15.57,0-23.35,0-6.79,0-6.79,6.78-7,1.85-.06,4.19.45,4.15-2.46,0-2.56-2.19-2.13-3.87-2.24-7-.47-7-.47-7-7.36,0-1.21,0-2.43,0-3.64.2-4.91,2.36-8.66,6.93-10.63s9-1.6,13.37,2.06C91,5.44,88,7.31,86.35,10.39ZM84.6,55.07c1.77.23,3.2-.16,3.67-2s-.69-2.66-2.19-2.87c-2.8-.4-4.65-1.94-4.72-4.64-.07-3,2-4.54,4.93-5a2.25,2.25,0,0,0,2-3c-.41-1.61-1.68-2-3.22-1.92-4.53.24-8.57,4.67-8.61,9.49S80.08,54.48,84.6,55.07Zm9.94,23.09c1.55,0,2.84-.83,2.93-2.34.11-1.9-1.37-2.62-3.09-2.63-4.64,0-9.28,0-13.92,0-1.72,0-3.28.58-3.17,2.52s1.59,2.49,3.33,2.49c2.41,0,4.81,0,7.22,0C90.07,78.17,92.31,78.2,94.54,78.16Zm19.63,5.93a8.35,8.35,0,0,0-2.73-7.94c-2.15-2-4.81-3.73-7.9-2.6-2,.72-2.52,3.25-.44,3.88,3.89,1.19,6.32,3.11,7.05,7.15.09.48,1,.81,1.28,1C112.94,85.67,113.94,85.24,114.17,84.09ZM102,18.71c.1-1.67-.08-3.22-2-3.62-1.71-.35-2.48.79-2.72,2.32a6,6,0,0,1-5.34,5.41c-1.54.28-2.67,1.06-2.32,2.74.4,2,2,2.05,3.65,1.86C97.52,27.17,101.68,23,102,18.71Z"/></svg>