<svg id="Layer_1" data-name="Layer 1" xmlns="http://www.w3.org/2000/svg" viewBox="0 0 424.98 156.25"><path d="M175.79,138.22a.56.56,0,0,1-.63.63h-3a.55.55,0,0,1-.63-.63V83.43a.55.55,0,0,1,.63-.63h3a.56.56,0,0,1,.63.63Z"/><path d="M188.33,138.85c-.47,0-.71-.21-.71-.63V101.46a.8.8,0,0,1,.55-.78,35.75,35.75,0,0,1,14.58-3.06q8.08,0,12.55,4.07t4.46,12.23v24.3a.55.55,0,0,1-.62.63h-2.83c-.47,0-.7-.21-.7-.63V114.08q0-12.63-12.86-12.62a32.39,32.39,0,0,0-11,1.88v34.88a.56.56,0,0,1-.63.63Z"/><path d="M230.42,138.85a.55.55,0,0,1-.62-.63v-39c0-.46.21-.7.62-.7h2.91c.41,0,.62.24.62.7v39a.55.55,0,0,1-.62.63Z"/><path d="M248.22,126.23q0,4.54,2.23,7.06a8.22,8.22,0,0,0,6.47,2.5l4.31-.16h.16c.31,0,.47.21.47.63v2.51a.63.63,0,0,1-.63.7,39.68,39.68,0,0,1-4.47.24q-5.88,0-9.29-3.45t-3.41-9.88V89.07a.55.55,0,0,1,.63-.62h2.51a.71.71,0,0,1,.71.62l.23,9.56h12c.42,0,.63.24.63.71v2.43a.56.56,0,0,1-.63.63H248.22Z"/><path d="M268.13,138.85a.56.56,0,0,1-.63-.63v-39c0-.46.21-.7.63-.7H271c.42,0,.63.24.63.7v39a.56.56,0,0,1-.63.63Z"/><path d="M287.76,98.72a27.74,27.74,0,0,1,8-1.1q7.29,0,11.13,3.84t3.84,11v23.83a.79.79,0,0,1-.55.78,47.13,47.13,0,0,1-6.78,1.89,38.72,38.72,0,0,1-7.8.78,20,20,0,0,1-11.8-3.29,10.83,10.83,0,0,1-4.66-9.4,10.69,10.69,0,0,1,4.39-9.18q4.38-3.21,12.07-3.21a64.18,64.18,0,0,1,11,1.25v-3.37q0-5.42-2.62-8.23c-1.75-1.88-4.54-2.82-8.35-2.82a23.79,23.79,0,0,0-6.54.9,21.23,21.23,0,0,0-5.45,2.31c-.32.27-.6.21-.87-.15l-1.33-2q-.39-.54,0-.78A21.44,21.44,0,0,1,287.76,98.72Zm-1.06,34.84a15,15,0,0,0,8.86,2.39,33.45,33.45,0,0,0,11-1.89V119.49a51,51,0,0,0-11-1.18c-4,0-7.07.74-9.13,2.24a7.45,7.45,0,0,0-3.1,6.47A7.61,7.61,0,0,0,286.7,133.56Z"/><path d="M324.41,126.23q0,4.54,2.23,7.06a8.22,8.22,0,0,0,6.47,2.5l4.31-.16h.16c.31,0,.47.21.47.63v2.51a.63.63,0,0,1-.63.7,39.68,39.68,0,0,1-4.47.24q-5.88,0-9.29-3.45t-3.41-9.88V89.07a.55.55,0,0,1,.63-.62h2.51a.71.71,0,0,1,.71.62l.23,9.56h12c.42,0,.63.24.63.71v2.43a.56.56,0,0,1-.63.63H324.41Z"/><path d="M344.32,138.85a.56.56,0,0,1-.63-.63v-39c0-.46.21-.7.63-.7h2.9c.42,0,.63.24.63.7v39a.56.56,0,0,1-.63.63Z"/><path d="M369.56,138.85a.69.69,0,0,1-.71-.55l-15-39L353.8,99c0-.37.21-.55.63-.55h3.06a.67.67,0,0,1,.7.55l9.1,24.46,1.41,3.68q1.71,4.86,2.66,7.13h.08q1.41-4,4-10.81L384.53,99a.77.77,0,0,1,.32-.4.84.84,0,0,1,.46-.15h3.06a.52.52,0,0,1,.47.24.64.64,0,0,1,.08.55l-15,39a.82.82,0,0,1-.78.55Z"/><path d="M425,120.19c0,.42-.24.63-.71.63h-27v4.39a9.8,9.8,0,0,0,3.37,7.84,12.52,12.52,0,0,0,8.46,2.9,17.3,17.3,0,0,0,7.1-1.38,21.89,21.89,0,0,0,5.68-3.64c.42-.26.73-.21.94.15l1.42,1.81c.31.31.28.63-.08.94A22.45,22.45,0,0,1,409,139.71a18.43,18.43,0,0,1-7.92-1.72,14.1,14.1,0,0,1-5.88-5,13.7,13.7,0,0,1-2.2-7.76V112.82q0-7.27,4.55-11.25a16.9,16.9,0,0,1,11.52-3.95,16.63,16.63,0,0,1,11.45,3.95q4.47,4,4.47,11.25Zm-4.08-7.37c0-3.6-1.08-6.4-3.25-8.38a12.2,12.2,0,0,0-8.59-3q-5.47,0-8.66,2.93t-3.17,8.43v4.47H420.9Z"/><path d="M202,72.27a28.14,28.14,0,0,1-11.29,2.19,26.34,26.34,0,0,1-10.93-2.23,18.34,18.34,0,0,1-8-6.74,19.71,19.71,0,0,1-3-11.09V36.53a20.31,20.31,0,0,1,2.86-11.1,17.56,17.56,0,0,1,7.72-6.7,25.84,25.84,0,0,1,10.74-2.19,37,37,0,0,1,9.92,1.37,32.34,32.34,0,0,1,8.9,3.88,1.3,1.3,0,0,1,.62,1,1.35,1.35,0,0,1-.23.63l-3.92,5.41a1,1,0,0,1-.86.54,1.37,1.37,0,0,1-.71-.23,26.44,26.44,0,0,0-13.79-3.69,12.37,12.37,0,0,0-8.55,2.87q-3.21,2.85-3.21,8.42V54.32c0,3.71,1.16,6.5,3.49,8.39a13.68,13.68,0,0,0,8.89,2.82,20.61,20.61,0,0,0,6.23-.9,14.79,14.79,0,0,0,4.75-2.39V50.32H191.15c-.73,0-1.09-.39-1.09-1.18V43c0-.78.36-1.17,1.09-1.17h18.66c.73,0,1.1.39,1.1,1.17v22a1.54,1.54,0,0,1-.4,1.26A24.63,24.63,0,0,1,202,72.27Z"/><path d="M231.91,74.46c-4.18,0-7.41-1.32-9.68-4s-3.41-6.41-3.41-11.21V18.65A1,1,0,0,1,220,17.48h6.74a1,1,0,0,1,1.17,1.17V58.94q0,3.86,1.26,5.53a4.54,4.54,0,0,0,3.92,1.69c.63,0,1.62,0,3-.16a1,1,0,0,1,1.17,1.18V73c0,.78-.28,1.2-.86,1.25A38.53,38.53,0,0,1,231.91,74.46Z"/><path d="M242.81,73.53a1,1,0,0,1-1.18-1.18V34c0-.73.39-1.1,1.18-1.1h6.82a1,1,0,0,1,1.1,1.1V72.35c0,.79-.37,1.18-1.1,1.18Z"/><path d="M274.48,32q7.61,0,11.95,4t4.35,12V70.78a1.38,1.38,0,0,1-.86,1.34,54.79,54.79,0,0,1-7.49,1.68,51.84,51.84,0,0,1-8.26.66c-5.08,0-9.25-1-12.55-3.13s-4.94-5.41-4.94-10A10.6,10.6,0,0,1,261.35,52q4.66-3.18,12.5-3.18a60.91,60.91,0,0,1,7.84.63V48c0-2.82-.59-4.85-1.76-6.07s-3.21-1.85-6.08-1.85a22.29,22.29,0,0,0-5.45.67,16.86,16.86,0,0,0-4.58,1.84,1.42,1.42,0,0,1-.71.24,1,1,0,0,1-.86-.55l-3.14-4.78c-.36-.58-.36-1,0-1.33Q265.15,32,274.48,32Zm-6.35,33.28a12.2,12.2,0,0,0,6,1.29,32.58,32.58,0,0,0,7.52-.94V56.75a52.18,52.18,0,0,0-7.6-.63q-8.23,0-8.23,5.18A4.25,4.25,0,0,0,268.13,65.26Z"/><path d="M311.87,74.46c-4.18,0-7.41-1.32-9.68-4s-3.41-6.41-3.41-11.21V18.65A1,1,0,0,1,300,17.48h6.74a1,1,0,0,1,1.18,1.17V58.94q0,3.86,1.25,5.53A4.55,4.55,0,0,0,313,66.16c.63,0,1.62,0,3-.16a1,1,0,0,1,1.18,1.18V73c0,.78-.29,1.2-.86,1.25A38.77,38.77,0,0,1,311.87,74.46Z"/><path d="M67.92,62.11c0,14.88,0,29.76,0,44.63,0,6-1.87,10.9-7.6,13.6-5.12,2.42-11.13,1.25-15.66-3.29a6.4,6.4,0,0,0-5.31-2.12c-7.77.24-13.37-4-15.1-11.52a4.48,4.48,0,0,0-2.42-3.12c-5.51-3.39-8-8.4-7.35-14.8a12.29,12.29,0,0,0-1.33-7.24c-2.42-4.64-2.68-9.44-.22-14.09.9-1.69.53-2.86-.13-4.35C10,53.4,10.93,47.39,15.33,42.08A5.78,5.78,0,0,0,16.62,37c-.75-5.45,1-10,5.68-13.12,1.54-1,1.88-2.16,2.13-3.82C25.52,12.79,29.81,8.43,37,7a5.73,5.73,0,0,0,3.69-1.75c4.73-5.44,11-5.8,17.43-4.7,5.2.89,9.75,8.28,9.78,15.51.07,15.35,0,30.7,0,46.05ZM44.7,7.62c2.75,2,5.45,3.73,7,6.54.74,1.36.87,2.84-.6,3.78s-2.35-.08-3.15-1.16a21.34,21.34,0,0,0-1.72-2.26,9.53,9.53,0,0,0-10.48-2.44c-4,1.4-6.8,4.39-6.65,8.83.13,3.47-.74,5.49-4.15,6.74-2.08.75-3.29,2.88-3.72,5.2-.54,2.94-.68,4.68,3.62,3.76,9.52-2,18.77,4.82,19.63,13.89.15,1.63.4,3.45-1.7,3.81s-2.31-1.4-2.64-3.05C39,45.8,35.87,42.09,30.28,41.05a11.42,11.42,0,0,0-12.1,4.76c-3.29,4.61-3.28,9.47-.06,14.12,1.18,1.71,1.25,3,0,4.65-3.46,4.57-2.95,9.08.53,13.44,1.07,1.34,1.89,2.43,1,4.59-2.39,5.87-.1,11.53,5.56,14.23a4.75,4.75,0,0,1,3.15,4.07c1.11,6.62,6.13,10.34,12,9.33,6.09-1.06,9.2-6.2,7.87-13.21-.32-1.69-.65-3.3,1.52-3.74,1.8-.37,2.51,1.07,2.9,2.49,1.38,5,.68,9.7-2.68,13.84-3.09,3.81-2.67,5.23,2,6.77,5.9,1.94,11-1.45,11.29-7.68.18-3.79.08-7.59.07-11.39,0-11.64,0-11.64-11.88-11.59-8.45,0-9.35.65-12.17,8.71-.47,1.33-1.07,2.36-2.63,2.13a2.29,2.29,0,0,1-2-2.77A14.84,14.84,0,0,1,35.2,91c2-7,6.92-9.91,16.77-9.89,11.55,0,11.39,0,11.43-11.18,0-3.57-1.31-4.18-4.44-4.1q-10.2.29-20.41,0a12.82,12.82,0,0,1-12.38-11c-.21-1.67-.74-3.79,1.75-4.19,2.2-.36,2.32,1.51,2.72,3.08,1.41,5.57,3.9,7.64,9.72,7.75,6.33.13,12.66-.12,19,.06,3,.09,4.13-.72,4-3.94-.24-7.11-.08-14.24,0-21.36,0-6.2,0-6.21-6.2-6.39-1.69-.05-3.83.41-3.79-2.25,0-2.34,2-1.95,3.53-2.05,6.45-.42,6.45-.43,6.43-6.73,0-1.11,0-2.22,0-3.33-.19-4.49-2.16-7.92-6.34-9.72S48.73,4.27,44.7,7.62Z"/><path d="M73.53,61.46c0-14.7.11-29.4,0-44.1C73.42,10,76.13,4.33,83,1.41c6.66-2.83,12.75-1.34,17.72,3.9a6.91,6.91,0,0,0,4.1,1.89c6.72,1.42,10.89,5.45,11.91,12.36a6.14,6.14,0,0,0,2.73,4.58,12.25,12.25,0,0,1,5.12,13.31c-.46,2.06.16,3.13,1.35,4.55,4.5,5.32,5.2,11.37,2.61,17.72a5.21,5.21,0,0,0,0,4.81c1.77,3.68,2.24,7.74.41,11.45a17.82,17.82,0,0,0-2.06,11.15c.5,3.21-.24,7.19-2.8,8.69-7.47,4.36-7,15.85-16,18a70.47,70.47,0,0,0-16.48,6.36c-8.67,4.52-18-1.91-18.11-11.77C73.4,92.76,73.53,77.11,73.53,61.46Zm23-54C92.39,4.21,88.17,3.85,83.87,6c-4.06,2-5.82,5.59-5.75,10.1,0,2.83-1.1,6.08.43,8.35s4.69.74,7.13,1c1.43.17,2.44.74,2.36,2.36s-1.29,2-2.66,2a34.21,34.21,0,0,1-3.79,0C79,29.52,77.93,30.5,78,33.2q.18,12.57,0,25.15c0,2.59,1.07,3.21,3.4,3.17,6.8-.12,13.61,0,20.41-.16,5.12-.13,7.71-2.44,8.84-7.5.39-1.76.58-3.78,3-3.19s1.81,2.7,1.54,4.35A13,13,0,0,1,102.6,65.85c-4.42.17-8.85.06-13.28.06-12.06,0-12,0-11.33,12.24.12,2.3.85,3,3,3,4-.1,7.91-.15,11.86,0,7.14.25,12.42,4.62,13.54,11,.3,1.74.8,3.77-1.49,4.36-2.53.65-2.52-1.47-2.93-3.2-1.17-5.07-4.19-7.46-9.4-7.55-3.8-.06-7.6.09-11.39,0-2.09-.06-3.22.39-3.18,2.81.13,6.8,0,13.6.12,20.4a7.69,7.69,0,0,0,5,7.41c3.21,1.36,6.2.6,9-1.22,1.83-1.19,2.63-2.33.47-4.29a13.56,13.56,0,0,1-4.24-13.36c.36-1.81.37-4.75,3.38-4.09,2.81.62,1.36,2.91,1.07,4.68-1,6.15,2.54,11.3,8.37,12.24s10.81-2.88,11.69-9.07c.34-2.38,1.33-3.43,3.43-4.45,5.46-2.65,7.53-7.66,5.59-13.45-.73-2.2-.68-3.65.85-5.53,3.76-4.64,3.92-8,.64-12.92-1.24-1.89-1.35-3.21-.07-5a11.39,11.39,0,0,0,2.17-8.51,12.2,12.2,0,0,0-11.24-10.44c-6.47-.35-11.32,3.38-12.92,10.11-.41,1.74-.44,3.85-2.92,3.25-2.31-.55-1.78-2.55-1.46-4.31a16.72,16.72,0,0,1,19.26-13.48c4,.64,5.18-.76,3.76-4.51-.8-2.12-2.11-4.12-4.29-4.82-2.85-.9-3.36-2.54-3.24-5.31.25-5.56-3.36-8.85-8.09-10.42-3.82-1.27-7,1.09-9.88,3.62-1,.92-1.2,2.62-2.74,3.08C88.87,13.64,89,13.34,96.57,7.47Z"/><path d="M60.76,46c0,4.47-3.34,8.51-7.47,9.05-1.62.22-2.93-.14-3.36-1.79s.64-2.44,2-2.63c2.55-.37,4.25-1.78,4.31-4.24.07-2.75-1.78-4.16-4.51-4.54a2.06,2.06,0,0,1-1.8-2.78c.37-1.47,1.54-1.83,3-1.76C57,37.52,60.72,41.57,60.76,46Z"/><path d="M50.32,76.17c-2,0-4.08,0-6.13,0-1.42,0-2.59-.76-2.67-2.14-.11-1.74,1.24-2.4,2.82-2.41,4.25,0,8.49,0,12.73,0,1.58,0,3,.54,2.91,2.31s-1.46,2.28-3,2.28Z"/><path d="M28.75,83c-1.39.06-2.3-.34-2.51-1.38a7.64,7.64,0,0,1,2.49-7.27c2-1.85,4.41-3.41,7.24-2.38,1.81.66,2.3,3,.39,3.55-3.56,1.09-5.78,2.84-6.45,6.54C29.83,82.47,29,82.77,28.75,83Z"/><path d="M45.38,29.74a9.13,9.13,0,0,1-8-8c-.1-1.53.07-2.94,1.81-3.31,1.56-.32,2.26.72,2.49,2.13a5.5,5.5,0,0,0,4.88,4.94c1.41.26,2.45,1,2.13,2.51C48.36,29.82,46.88,29.91,45.38,29.74Z"/><path d="M80.41,46.09a9.55,9.55,0,0,1,7.4-8.67c1.52-.25,3-.17,3.58,1.43.69,1.76-.45,2.66-2,3-2.4.48-4.17,1.62-4.26,4.24-.1,2.91,1.85,4,4.41,4.55,1.39.27,2.37,1.14,1.91,2.66S89.6,55.19,88,55A9.24,9.24,0,0,1,80.41,46.09Z"/><path d="M90.62,76.17c-2.21,0-4.42,0-6.62,0-1.39,0-2.54-.69-2.63-2.18s1-2.29,2.4-2.3c4.58,0,9.15,0,13.72,0a2,2,0,0,1,2.12,2.07,2.2,2.2,0,0,1-2.36,2.38c-2.21,0-4.42,0-6.63,0Z"/><path d="M104,21.8c-.51,4.15-4.61,8-8.34,8-1.34,0-2.64-.14-3-1.61s.52-2.3,1.94-2.65c2.6-.65,4.62-1.81,4.93-4.88.16-1.6,1.29-2.69,2.93-2.16S104.24,20.55,104,21.8Z"/><path d="M106.39,71.64c4.43.09,8.68,4.17,9,8.14.11,1.52-.08,2.91-1.94,3.16a2.14,2.14,0,0,1-2.58-2.09c-.33-3-2-4.36-4.86-4.78a2.07,2.07,0,0,1-2-2.64A2.26,2.26,0,0,1,106.39,71.64Z"/><path d="M68.29,156c-5.22,1.59-17.55-4-20.25-4.91A159.42,159.42,0,0,1,19.1,138.12l-1.74-1c-9.1-5.43-14.64-12.8-16.1-22.38A100.85,100.85,0,0,1,.66,87.4C.8,86.19.6,84.24,2.34,84.11s2,1.82,2.34,3C6.54,93,8,99.05,10,104.94c2,5.71,4.22,11.38,8.74,16.12a28.11,28.11,0,0,0,14.38,7.75c-2.77-2-5.57-4-8.28-6.11a14.1,14.1,0,0,1-4.54-5.39,2.57,2.57,0,0,1,.51-2.92,2,2,0,0,1,2.63-.13c8.11,5.44,18.08,8,26.58,12.87a17.72,17.72,0,0,1,6.57,6.49c2.37,4,6,6.63,9.15,9.78,2.54,2.53,5.36,5.8,4.8,10A3,3,0,0,1,68.29,156Z"/><path d="M75.61,156c5.21,1.59,17.54-4,20.24-4.91a159.51,159.51,0,0,0,29-12.94l1.73-1c9.1-5.43,14.64-12.8,16.11-22.38a101.25,101.25,0,0,0,.6-27.32c-.15-1.21.06-3.16-1.69-3.29s-2,1.82-2.33,3c-1.86,5.94-3.32,12-5.36,17.86-2,5.71-4.23,11.38-8.75,16.12a28,28,0,0,1-14.37,7.75c2.76-2,5.56-4,8.28-6.11a14.19,14.19,0,0,0,4.54-5.39,2.61,2.61,0,0,0-.51-2.92,2,2,0,0,0-2.63-.13c-8.11,5.44-18.08,8-26.59,12.87a17.76,17.76,0,0,0-6.56,6.49c-2.38,4-6,6.63-9.16,9.78-2.53,2.53-5.35,5.8-4.8,10A3,3,0,0,0,75.61,156Z"/></svg>